<?xml version="1.0" encoding="UTF-8"?>
<svg width="836px" height="236px" viewBox="0 0 836 236" version="1.1" xmlns="http://www.w3.org/2000/svg" xmlns:xlink="http://www.w3.org/1999/xlink">
    <!-- Generator: Sketch 49.1 (51147) - http://www.bohemiancoding.com/sketch -->
    <title>readme_logo</title>
    <desc>Created with Sketch.</desc>
    <defs></defs>
    <g id="readme_logo" stroke="none" stroke-width="1" fill="none" fill-rule="evenodd">
        <text id="M" stroke="#000000" stroke-width="0.5" font-family="Amethyst" font-size="120" font-weight="normal" line-spacing="20" fill="#000000">
            <tspan x="14.5" y="133.882812">M</tspan>
        </text>
        <text id="N" stroke="#000000" stroke-width="0.5" font-family="Amethyst" font-size="120" font-weight="normal" line-spacing="20" fill="#000000">
            <tspan x="218.5" y="133.882812">N</tspan>
        </text>
        <path d="M433.4375,131.304688 C433.359375,131.460938 433.007816,131.929684 432.382812,132.710938 L431.328125,134 L429.101562,131.304688 L429.101562,16.109375 L431.328125,14.234375 L433.4375,16.109375 L433.4375,131.304688 Z M431.328125,14.234375 C431.328125,14.1562496 431.367187,14.0781254 431.445312,14 L450.3125,30.40625 L450.195312,30.640625 L431.328125,14.234375 Z M432.96875,47.984375 L432.851562,47.75 L450.078125,30.40625 C450.078125,30.4843754 450.117187,30.5624996 450.195312,30.640625 L432.96875,47.984375 Z M432.96875,47.984375 C433.046875,47.9062496 433.085938,47.8281254 433.085938,47.75 L447.617188,56.65625 L447.5,56.890625 L432.96875,47.984375 Z M447.5,56.890625 L447.265625,56.65625 L449.960938,30.40625 L450.195312,30.640625 L447.5,56.890625 Z M447.5,86.5390625 L447.265625,86.3046875 L447.265625,56.65625 L447.5,56.890625 L447.5,86.5390625 Z M432.617188,71.65625 L432.734375,71.5390625 L447.617188,86.7734375 C447.539062,86.8515629 447.5,86.9296871 447.5,87.0078125 L432.617188,71.65625 Z M432.617188,71.65625 C432.539062,71.65625 432.460938,71.6171879 432.382812,71.5390625 L447.382812,56.65625 L447.5,56.890625 L432.617188,71.65625 Z M445.507812,99.8984375 L445.273438,99.78125 L447.265625,86.3046875 L447.5,86.5390625 L445.507812,99.8984375 Z M432.617188,90.2890625 L432.734375,90.0546875 L445.625,100.367188 C445.546875,100.445313 445.507812,100.523437 445.507812,100.601562 L432.617188,90.2890625 Z M432.617188,89.5859375 L432.5,89.46875 L447.382812,86.7734375 L447.5,87.0078125 L432.617188,89.5859375 Z M445.507812,99.8984375 C445.585938,99.8203121 445.664062,99.78125 445.742188,99.78125 L450.664062,125.09375 L450.429688,125.210938 L445.507812,99.8984375 Z M432.617188,131.421875 L432.5,131.1875 L450.429688,125.09375 L450.429688,125.210938 L432.617188,131.421875 Z M432.617188,131.421875 L432.382812,131.1875 L445.273438,99.78125 C445.351563,99.78125 445.429687,99.8203121 445.507812,99.8984375 L432.617188,131.421875 Z M419.492188,128.375 L419.609375,128.140625 L430.859375,131.773438 L430.742188,131.890625 L419.492188,128.375 Z M419.492188,128.375 C419.492188,128.296875 419.453125,128.21875 419.375,128.140625 L430.15625,111.5 L430.390625,111.734375 L419.492188,128.375 Z M415.507812,91.34375 L415.625,91.109375 L430.507812,111.5 C430.507812,111.578125 430.46875,111.65625 430.390625,111.734375 L415.507812,91.34375 Z M415.507812,90.640625 L415.507812,90.40625 L430.859375,95.2109375 L430.742188,95.4453125 L415.507812,90.640625 Z M415.507812,91.34375 L415.273438,91.109375 L422.890625,66.03125 L423.125,66.265625 L415.507812,91.34375 Z M423.125,66.265625 L423.242188,66.03125 L429.921875,70.3671875 C429.84375,70.4453129 429.804688,70.5234371 429.804688,70.6015625 L423.125,66.265625 Z M414.570312,34.15625 L414.6875,34.0390625 L423.359375,66.03125 L423.125,66.265625 L414.570312,34.15625 Z M414.570312,34.15625 L414.6875,34.0390625 L430.859375,42.59375 L430.742188,42.7109375 L414.570312,34.15625 Z M414.570312,34.15625 C414.492187,34.15625 414.453125,34.1171879 414.453125,34.0390625 L431.09375,14.46875 L431.328125,14.703125 L414.570312,34.15625 Z" id="I" stroke="#000000" stroke-width="0.5" fill="#000000"></path>
        <path d="M604.414062,104.351562 C604.414062,96.851525 601.796901,90.9922086 596.5625,86.7734375 C591.328099,82.5546664 581.953193,78.5898623 568.4375,74.8789062 C554.921807,71.1679502 545.136749,67.0859598 539.082031,62.6328125 C533.027313,58.1796652 530,51.5195756 530,42.6523438 C530,33.7851119 533.574183,26.7929943 540.722656,21.6757812 C547.871129,16.5585682 557.226505,14 568.789062,14 C580.35162,14 589.706996,17.1444998 596.855469,23.4335938 C604.003942,29.7226877 607.578125,38.1015102 607.578125,48.5703125 L605.46875,50.9140625 L603.242188,48.5703125 C603.242188,39.664018 600.097688,32.3984656 593.808594,26.7734375 C587.5195,21.1484094 579.140677,18.3359375 568.671875,18.3359375 C557.890571,18.3359375 549.472687,20.660133 543.417969,25.3085938 C537.363251,29.9570545 534.335938,35.6601225 534.335938,42.4179688 C534.335938,49.175815 536.816381,54.7031035 541.777344,59 C546.738306,63.2968965 556.054619,67.1640453 569.726562,70.6015625 C582.851628,74.1172051 592.656218,78.2773197 599.140625,83.0820312 C605.625032,87.8867428 608.867188,94.9765156 608.867188,104.351562 C608.867188,113.726609 605.156287,121.011693 597.734375,126.207031 C590.312463,131.40237 580.82037,134 569.257812,134 C557.382753,134 547.246136,131.304714 538.847656,125.914062 C530.449177,120.523411 526.25,111.695374 526.25,99.4296875 L528.359375,97.0859375 L530.585938,99.4296875 C530.585938,110.210991 534.433555,117.945289 542.128906,122.632812 C549.824257,127.320336 558.886667,129.664062 569.316406,129.664062 C579.746146,129.664062 588.203093,127.359398 594.6875,122.75 C601.171907,118.140602 604.414062,112.007851 604.414062,104.351562 Z M598.789062,29.8203125 L551.328125,19.5078125 L551.328125,19.2734375 L598.789062,29.5859375 L598.789062,29.8203125 Z M596.796875,29.8203125 L537.265625,57.59375 L537.265625,57.359375 L596.679688,29.5859375 L596.796875,29.8203125 Z M539.375,56.5390625 L539.375,56.421875 L576.992188,59.3515625 L576.992188,59.5859375 L539.375,56.5390625 Z M576.992188,59.5859375 L576.757812,59.3515625 L596.5625,29.5859375 L596.796875,29.8203125 L576.992188,59.5859375 Z M576.992188,59.5859375 C576.992188,59.5078121 577.03125,59.4296879 577.109375,59.3515625 L579.101562,73.765625 L578.984375,74 L576.992188,59.5859375 Z M578.984375,74 C578.90625,73.9218746 578.867188,73.8437504 578.867188,73.765625 L600.664062,57.828125 L600.78125,58.0625 L578.984375,74 Z M596.796875,29.8203125 L596.914062,29.5859375 L600.898438,57.828125 C600.820312,57.9062504 600.78125,57.9843746 600.78125,58.0625 L596.796875,29.8203125 Z M600.78125,58.0625 C600.78125,57.9843746 600.820312,57.9062504 600.898438,57.828125 L602.65625,87.2421875 L602.421875,87.4765625 L600.78125,58.0625 Z M584.492188,80.09375 L529.648438,104.820312 L529.648438,104.585938 L584.375,79.859375 L584.492188,80.09375 Z M584.492188,80.09375 L567.5,130.25 L567.382812,130.132812 L584.257812,79.859375 L584.492188,80.09375 Z M602.421875,87.4765625 L567.5,130.25 C567.5,130.171875 567.460938,130.132812 567.382812,130.132812 L602.304688,87.2421875 L602.421875,87.4765625 Z M567.5,130.25 L530.820312,104.234375 L530.9375,104.117188 L567.617188,130.132812 L567.5,130.25 Z" id="S" stroke="#000000" stroke-width="0.5" fill="#000000"></path>
        <path d="M806.929688,18.3359375 L764.15625,18.3359375 L764.15625,131.539062 L761.929688,134 L759.820312,131.539062 L759.820312,18.3359375 L717.046875,18.3359375 L714.351562,16.34375 L717.046875,14 L806.929688,14 L809.742188,16.4609375 L806.929688,18.3359375 Z M760.992188,47.3984375 L726.773438,18.3359375 C726.773438,18.2578121 726.8125,18.1796879 726.890625,18.1015625 L761.109375,47.1640625 L760.992188,47.3984375 Z M740.71875,79.15625 L740.484375,78.921875 L759.585938,46.109375 L759.820312,46.34375 L740.71875,79.15625 Z M726.773438,18.3359375 L726.890625,18.1015625 L740.835938,78.921875 C740.835938,79.0000004 740.796875,79.0781246 740.71875,79.15625 L726.773438,18.3359375 Z M740.71875,79.15625 C740.71875,79.0781246 740.757812,79.0000004 740.835938,78.921875 L761.109375,90.171875 L760.992188,90.40625 L740.71875,79.15625 Z M732.867188,111.5 L732.75,111.265625 L760.875,90.171875 C760.875,90.2500004 760.914062,90.3281246 760.992188,90.40625 L732.867188,111.5 Z M732.867188,111.5 C732.867188,111.421875 732.828125,111.34375 732.75,111.265625 L740.484375,78.921875 L740.71875,79.15625 L732.867188,111.5 Z M732.867188,111.5 C732.945313,111.421875 732.984375,111.34375 732.984375,111.265625 L759.820312,124.15625 L759.820312,124.273438 L732.867188,111.5 Z M763.335938,125.445312 C763.335938,125.367187 763.296875,125.289063 763.21875,125.210938 L795.914062,106.8125 L796.03125,107.046875 L763.335938,125.445312 Z M764.15625,90.40625 C764.15625,90.3281246 764.195312,90.2500004 764.273438,90.171875 L796.148438,106.8125 L796.03125,107.046875 L764.15625,90.40625 Z M764.15625,90.40625 C764.15625,90.3281246 764.117188,90.2500004 764.039062,90.171875 L814.195312,75.5234375 L814.3125,75.7578125 L764.15625,90.40625 Z M796.03125,107.046875 C795.953125,106.96875 795.914062,106.890625 795.914062,106.8125 L814.078125,75.5234375 L814.3125,75.7578125 L796.03125,107.046875 Z M776.34375,58.765625 L776.460938,58.6484375 L814.429688,75.5234375 C814.351562,75.6015629 814.3125,75.6796871 814.3125,75.7578125 L776.34375,58.765625 Z M776.34375,58.765625 L776.34375,58.6484375 L818.179688,39.8984375 L818.296875,40.1328125 L776.34375,58.765625 Z M814.3125,75.7578125 L814.078125,75.5234375 L818.0625,39.8984375 L818.296875,40.1328125 L814.3125,75.7578125 Z M764.15625,38.9609375 L764.273438,38.7265625 L776.578125,58.6484375 C776.5,58.6484375 776.421875,58.6874996 776.34375,58.765625 L764.15625,38.9609375 Z M764.15625,90.40625 L763.921875,90.171875 L776.226562,58.6484375 C776.304688,58.6484375 776.34375,58.6874996 776.34375,58.765625 L764.15625,90.40625 Z M806.34375,18.3359375 L806.578125,18.1015625 L818.414062,39.8984375 L818.296875,40.1328125 L806.34375,18.3359375 Z M776.34375,58.765625 C776.34375,58.6874996 776.304688,58.6484375 776.226562,58.6484375 L793.570312,33.453125 L793.6875,33.5703125 L776.34375,58.765625 Z M764.15625,38.9609375 L764.15625,38.7265625 L793.335938,33.8046875 L793.335938,34.0390625 L764.15625,38.9609375 Z M793.335938,34.0390625 C793.335938,33.9609371 793.375,33.8828129 793.453125,33.8046875 L818.648438,39.8984375 L818.648438,40.1328125 L793.335938,34.0390625 Z M793.335938,34.0390625 C793.257812,33.9609371 793.21875,33.8828129 793.21875,33.8046875 L806.226562,18.1015625 L806.34375,18.3359375 L793.335938,34.0390625 Z M776.34375,17.3984375 L764.15625,38.9609375 L763.921875,38.7265625 L776.226562,17.1640625 L776.34375,17.3984375 Z M775.875,18.3359375 C775.875,18.2578121 775.914062,18.1796879 775.992188,18.1015625 L793.453125,33.8046875 L793.335938,34.0390625 L775.875,18.3359375 Z" id="T" stroke="#000000" stroke-width="0.5" fill="#000000"></path>
        <rect id="Rectangle" fill="#363634" x="20" y="172" width="797" height="54" rx="8"></rect>
        <path d="M70.0935059,196.353516 C70.0935059,198.160165 69.4770569,199.549718 68.2441406,200.522217 C67.0112243,201.494715 65.2473259,201.980957 62.9523926,201.980957 L60.8527832,201.980957 L60.8527832,209 L58.7775879,209 L58.7775879,191.15332 L63.4040527,191.15332 C67.8637104,191.15332 70.0935059,192.886701 70.0935059,196.353516 Z M60.8527832,200.19873 L62.720459,200.19873 C64.5596609,200.19873 65.890214,199.901696 66.7121582,199.307617 C67.5341024,198.713539 67.9450684,197.7614 67.9450684,196.451172 C67.9450684,195.271153 67.5585162,194.392255 66.7854004,193.814453 C66.0122845,193.236651 64.8078695,192.947754 63.1721191,192.947754 L60.8527832,192.947754 L60.8527832,200.19873 Z M79.6271973,195.376953 C80.2212758,195.376953 80.7543108,195.425781 81.2263184,195.523438 L80.9455566,197.40332 C80.3921685,197.281249 79.9038921,197.220215 79.4807129,197.220215 C78.3983507,197.220215 77.4726601,197.659664 76.7036133,198.538574 C75.9345665,199.417485 75.5500488,200.512038 75.5500488,201.822266 L75.5500488,209 L73.5236816,209 L73.5236816,195.621094 L75.1960449,195.621094 L75.4279785,198.099121 L75.5256348,198.099121 C76.0220565,197.228349 76.6201951,196.556969 77.3200684,196.084961 C78.0199417,195.612953 78.7889769,195.376953 79.6271973,195.376953 Z M88.880127,209.244141 C86.902578,209.244141 85.3421281,208.641933 84.1987305,207.4375 C83.0553328,206.233067 82.4836426,204.56072 82.4836426,202.42041 C82.4836426,200.263824 83.0146431,198.550788 84.0766602,197.28125 C85.1386772,196.011712 86.5648511,195.376953 88.3552246,195.376953 C90.0316653,195.376953 91.3581494,195.928299 92.3347168,197.031006 C93.3112842,198.133713 93.7995605,199.58837 93.7995605,201.39502 L93.7995605,202.676758 L84.583252,202.676758 C84.6239423,204.247404 85.0206668,205.439612 85.7734375,206.253418 C86.5262082,207.067224 87.5861748,207.474121 88.9533691,207.474121 C90.393806,207.474121 91.8179454,207.173017 93.2258301,206.570801 L93.2258301,208.377441 C92.5096807,208.686688 91.8321972,208.908447 91.1933594,209.042725 C90.5545215,209.177003 89.7834518,209.244141 88.880127,209.244141 Z M88.3308105,197.07373 C87.2565864,197.07373 86.4000683,197.423662 85.7612305,198.123535 C85.1223926,198.823408 84.7460129,199.791823 84.6320801,201.028809 L91.626709,201.028809 C91.626709,199.751133 91.3418811,198.772546 90.7722168,198.093018 C90.2025525,197.413489 89.3887585,197.07373 88.3308105,197.07373 Z M106.360596,207.205566 L106.250732,207.205566 C105.314855,208.564623 103.91513,209.244141 102.051514,209.244141 C100.30183,209.244141 98.9407601,208.646002 97.9682617,207.449707 C96.9957634,206.253412 96.5095215,204.552583 96.5095215,202.347168 C96.5095215,200.141753 96.9977979,198.428717 97.9743652,197.208008 C98.9509326,195.987299 100.309969,195.376953 102.051514,195.376953 C103.866301,195.376953 105.257889,196.036126 106.226318,197.354492 L106.38501,197.354492 L106.299561,196.390137 L106.250732,195.450195 L106.250732,190.005859 L108.2771,190.005859 L108.2771,209 L106.62915,209 L106.360596,207.205566 Z M102.307861,207.547363 C103.691332,207.547363 104.694333,207.170984 105.316895,206.418213 C105.939456,205.665442 106.250732,204.450855 106.250732,202.774414 L106.250732,202.347168 C106.250732,200.451 105.935387,199.098067 105.304688,198.28833 C104.673988,197.478593 103.666918,197.07373 102.283447,197.07373 C101.09529,197.07373 100.185876,197.535559 99.5551758,198.459229 C98.924476,199.382898 98.6091309,200.687003 98.6091309,202.371582 C98.6091309,204.080575 98.9224415,205.370438 99.5490723,206.241211 C100.175703,207.111984 101.09529,207.547363 102.307861,207.547363 Z M114.600342,209 L112.573975,209 L112.573975,195.621094 L114.600342,195.621094 L114.600342,209 Z M112.403076,191.995605 C112.403076,191.531736 112.517007,191.191977 112.744873,190.976318 C112.972739,190.76066 113.257567,190.652832 113.599365,190.652832 C113.924888,190.652832 114.205647,190.762694 114.44165,190.982422 C114.677654,191.20215 114.795654,191.539874 114.795654,191.995605 C114.795654,192.451337 114.677654,192.791096 114.44165,193.014893 C114.205647,193.238689 113.924888,193.350586 113.599365,193.350586 C113.257567,193.350586 112.972739,193.238689 112.744873,193.014893 C112.517007,192.791096 112.403076,192.451337 112.403076,191.995605 Z M124.243896,209.244141 C122.307038,209.244141 120.807622,208.648037 119.745605,207.455811 C118.683588,206.263585 118.152588,204.576997 118.152588,202.395996 C118.152588,200.158029 118.691726,198.428717 119.77002,197.208008 C120.848313,195.987299 122.384349,195.376953 124.378174,195.376953 C125.021081,195.376953 125.663978,195.446126 126.306885,195.584473 C126.949792,195.72282 127.454344,195.885578 127.820557,196.072754 L127.197998,197.793945 C126.750405,197.614908 126.262128,197.466391 125.733154,197.348389 C125.20418,197.230387 124.736249,197.171387 124.329346,197.171387 C121.611233,197.171387 120.252197,198.904768 120.252197,202.371582 C120.252197,204.01547 120.583818,205.276851 121.24707,206.155762 C121.910322,207.034672 122.892979,207.474121 124.195068,207.474121 C125.309983,207.474121 126.453363,207.234052 127.625244,206.753906 L127.625244,208.54834 C126.730057,209.012209 125.602953,209.244141 124.243896,209.244141 Z M135.120361,207.571777 C135.478436,207.571777 135.824298,207.545329 136.157959,207.492432 C136.49162,207.439534 136.756103,207.384603 136.951416,207.327637 L136.951416,208.87793 C136.731688,208.983724 136.408205,209.071207 135.980957,209.140381 C135.553709,209.209554 135.169191,209.244141 134.827393,209.244141 C132.239489,209.244141 130.945557,207.881036 130.945557,205.154785 L130.945557,197.195801 L129.029053,197.195801 L129.029053,196.219238 L130.945557,195.376953 L131.800049,192.520508 L132.971924,192.520508 L132.971924,195.621094 L136.85376,195.621094 L136.85376,197.195801 L132.971924,197.195801 L132.971924,205.069336 C132.971924,205.875004 133.163165,206.493487 133.545654,206.924805 C133.928143,207.356122 134.45304,207.571777 135.120361,207.571777 Z M155.27417,209 L155.27417,200.345215 C155.27417,199.254715 155.025963,198.440921 154.529541,197.903809 C154.033119,197.366697 153.255946,197.098145 152.197998,197.098145 C150.790113,197.098145 149.762699,197.480628 149.115723,198.245605 C148.468747,199.010583 148.145264,200.263826 148.145264,202.005371 L148.145264,209 L146.118896,209 L146.118896,190.005859 L148.145264,190.005859 L148.145264,195.755371 C148.145264,196.447106 148.112712,197.020831 148.047607,197.476562 L148.169678,197.476562 C148.568443,196.833656 149.136064,196.327069 149.872559,195.956787 C150.609053,195.586505 151.449295,195.401367 152.393311,195.401367 C154.029061,195.401367 155.255855,195.789954 156.07373,196.567139 C156.891606,197.344324 157.300537,198.579256 157.300537,200.271973 L157.300537,209 L155.27417,209 Z M169.690674,209 L169.287842,207.095703 L169.190186,207.095703 C168.522865,207.933923 167.857588,208.501545 167.194336,208.798584 C166.531084,209.095623 165.703049,209.244141 164.710205,209.244141 C163.383701,209.244141 162.344079,208.902347 161.591309,208.21875 C160.838538,207.535153 160.462158,206.562669 160.462158,205.30127 C160.462158,202.599433 162.622781,201.183432 166.944092,201.053223 L169.2146,200.97998 L169.2146,200.149902 C169.2146,199.100092 168.988772,198.324954 168.537109,197.824463 C168.085447,197.323972 167.363205,197.07373 166.370361,197.07373 C165.255447,197.07373 163.994066,197.415524 162.586182,198.099121 L161.963623,196.548828 C162.622806,196.190753 163.345048,195.909995 164.130371,195.706543 C164.915694,195.503091 165.70304,195.401367 166.492432,195.401367 C168.087492,195.401367 169.269527,195.755368 170.038574,196.463379 C170.807621,197.17139 171.192139,198.306633 171.192139,199.869141 L171.192139,209 L169.690674,209 Z M165.113037,207.571777 C166.374437,207.571777 167.365231,207.225915 168.085449,206.53418 C168.805668,205.842444 169.165771,204.87403 169.165771,203.628906 L169.165771,202.42041 L167.139404,202.505859 C165.528068,202.562826 164.366377,202.813067 163.654297,203.256592 C162.942216,203.700116 162.586182,204.389807 162.586182,205.325684 C162.586182,206.058109 162.80794,206.615558 163.251465,206.998047 C163.694989,207.380536 164.315507,207.571777 165.113037,207.571777 Z M184.522217,209 L184.522217,200.345215 C184.522217,199.254715 184.27401,198.440921 183.777588,197.903809 C183.281166,197.366697 182.503993,197.098145 181.446045,197.098145 C180.046298,197.098145 179.020918,197.476559 178.369873,198.233398 C177.718828,198.990238 177.393311,200.239412 177.393311,201.980957 L177.393311,209 L175.366943,209 L175.366943,195.621094 L177.014893,195.621094 L177.344482,197.452148 L177.442139,197.452148 C177.85718,196.792965 178.439042,196.28231 179.187744,195.920166 C179.936446,195.558022 180.770585,195.376953 181.690186,195.376953 C183.301522,195.376953 184.514075,195.76554 185.327881,196.542725 C186.141687,197.319909 186.548584,198.56298 186.548584,200.271973 L186.548584,209 L184.522217,209 Z M199.817627,207.205566 L199.707764,207.205566 C198.771887,208.564623 197.372161,209.244141 195.508545,209.244141 C193.758862,209.244141 192.397791,208.646002 191.425293,207.449707 C190.452795,206.253412 189.966553,204.552583 189.966553,202.347168 C189.966553,200.141753 190.454829,198.428717 191.431396,197.208008 C192.407964,195.987299 193.767,195.376953 195.508545,195.376953 C197.323333,195.376953 198.71492,196.036126 199.68335,197.354492 L199.842041,197.354492 L199.756592,196.390137 L199.707764,195.450195 L199.707764,190.005859 L201.734131,190.005859 L201.734131,209 L200.086182,209 L199.817627,207.205566 Z M195.764893,207.547363 C197.148363,207.547363 198.151364,207.170984 198.773926,206.418213 C199.396487,205.665442 199.707764,204.450855 199.707764,202.774414 L199.707764,202.347168 C199.707764,200.451 199.392419,199.098067 198.761719,198.28833 C198.131019,197.478593 197.123949,197.07373 195.740479,197.07373 C194.552322,197.07373 193.642907,197.535559 193.012207,198.459229 C192.381507,199.382898 192.066162,200.687003 192.066162,202.371582 C192.066162,204.080575 192.379473,205.370438 193.006104,206.241211 C193.632734,207.111984 194.552321,207.547363 195.764893,207.547363 Z M216.956299,209 L214.502686,201.150879 C214.348062,200.670733 214.059166,199.580249 213.635986,197.879395 L213.53833,197.879395 C213.212808,199.303555 212.92798,200.402177 212.683838,201.175293 L210.156982,209 L207.813232,209 L204.16333,195.621094 L206.287354,195.621094 C207.149988,198.982113 207.807127,201.541495 208.258789,203.299316 C208.710451,205.057138 208.968831,206.241208 209.033936,206.851562 L209.131592,206.851562 C209.22111,206.387693 209.365559,205.78752 209.564941,205.051025 C209.764324,204.314531 209.937255,203.730634 210.08374,203.299316 L212.537354,195.621094 L214.734619,195.621094 L217.127197,203.299316 C217.582929,204.699063 217.89217,205.874995 218.054932,206.827148 L218.152588,206.827148 C218.18514,206.534178 218.272623,206.082523 218.415039,205.472168 C218.557455,204.861813 219.405835,201.578155 220.960205,195.621094 L223.059814,195.621094 L219.361084,209 L216.956299,209 Z M231.580322,195.376953 C232.174401,195.376953 232.707436,195.425781 233.179443,195.523438 L232.898682,197.40332 C232.345293,197.281249 231.857017,197.220215 231.433838,197.220215 C230.351476,197.220215 229.425785,197.659664 228.656738,198.538574 C227.887691,199.417485 227.503174,200.512038 227.503174,201.822266 L227.503174,209 L225.476807,209 L225.476807,195.621094 L227.14917,195.621094 L227.381104,198.099121 L227.47876,198.099121 C227.975182,197.228349 228.57332,196.556969 229.273193,196.084961 C229.973067,195.612953 230.742102,195.376953 231.580322,195.376953 Z M237.708252,209 L235.681885,209 L235.681885,195.621094 L237.708252,195.621094 L237.708252,209 Z M235.510986,191.995605 C235.510986,191.531736 235.624917,191.191977 235.852783,190.976318 C236.080649,190.76066 236.365477,190.652832 236.707275,190.652832 C237.032798,190.652832 237.313557,190.762694 237.549561,190.982422 C237.785564,191.20215 237.903564,191.539874 237.903564,191.995605 C237.903564,192.451337 237.785564,192.791096 237.549561,193.014893 C237.313557,193.238689 237.032798,193.350586 236.707275,193.350586 C236.365477,193.350586 236.080649,193.238689 235.852783,193.014893 C235.624917,192.791096 235.510986,192.451337 235.510986,191.995605 Z M246.326416,207.571777 C246.684491,207.571777 247.030353,207.545329 247.364014,207.492432 C247.697674,207.439534 247.962157,207.384603 248.157471,207.327637 L248.157471,208.87793 C247.937743,208.983724 247.61426,209.071207 247.187012,209.140381 C246.759763,209.209554 246.375246,209.244141 246.033447,209.244141 C243.445544,209.244141 242.151611,207.881036 242.151611,205.154785 L242.151611,197.195801 L240.235107,197.195801 L240.235107,196.219238 L242.151611,195.376953 L243.006104,192.520508 L244.177979,192.520508 L244.177979,195.621094 L248.059814,195.621094 L248.059814,197.195801 L244.177979,197.195801 L244.177979,205.069336 C244.177979,205.875004 244.36922,206.493487 244.751709,206.924805 C245.134198,207.356122 245.659095,207.571777 246.326416,207.571777 Z M255.1521,207.571777 C255.510174,207.571777 255.856037,207.545329 256.189697,207.492432 C256.523358,207.439534 256.787841,207.384603 256.983154,207.327637 L256.983154,208.87793 C256.763427,208.983724 256.439944,209.071207 256.012695,209.140381 C255.585447,209.209554 255.200929,209.244141 254.859131,209.244141 C252.271227,209.244141 250.977295,207.881036 250.977295,205.154785 L250.977295,197.195801 L249.060791,197.195801 L249.060791,196.219238 L250.977295,195.376953 L251.831787,192.520508 L253.003662,192.520508 L253.003662,195.621094 L256.885498,195.621094 L256.885498,197.195801 L253.003662,197.195801 L253.003662,205.069336 C253.003662,205.875004 253.194904,206.493487 253.577393,206.924805 C253.959881,207.356122 254.484779,207.571777 255.1521,207.571777 Z M265.30835,209.244141 C263.330801,209.244141 261.770351,208.641933 260.626953,207.4375 C259.483555,206.233067 258.911865,204.56072 258.911865,202.42041 C258.911865,200.263824 259.442866,198.550788 260.504883,197.28125 C261.5669,196.011712 262.993074,195.376953 264.783447,195.376953 C266.459888,195.376953 267.786372,195.928299 268.762939,197.031006 C269.739507,198.133713 270.227783,199.58837 270.227783,201.39502 L270.227783,202.676758 L261.011475,202.676758 C261.052165,204.247404 261.448889,205.439612 262.20166,206.253418 C262.954431,207.067224 264.014397,207.474121 265.381592,207.474121 C266.822029,207.474121 268.246168,207.173017 269.654053,206.570801 L269.654053,208.377441 C268.937903,208.686688 268.26042,208.908447 267.621582,209.042725 C266.982744,209.177003 266.211674,209.244141 265.30835,209.244141 Z M264.759033,197.07373 C263.684809,197.07373 262.828291,197.423662 262.189453,198.123535 C261.550615,198.823408 261.174236,199.791823 261.060303,201.028809 L268.054932,201.028809 C268.054932,199.751133 267.770104,198.772546 267.200439,198.093018 C266.630775,197.413489 265.816981,197.07373 264.759033,197.07373 Z M282.837646,209 L282.837646,200.345215 C282.837646,199.254715 282.589439,198.440921 282.093018,197.903809 C281.596596,197.366697 280.819423,197.098145 279.761475,197.098145 C278.361728,197.098145 277.336348,197.476559 276.685303,198.233398 C276.034258,198.990238 275.70874,200.239412 275.70874,201.980957 L275.70874,209 L273.682373,209 L273.682373,195.621094 L275.330322,195.621094 L275.659912,197.452148 L275.757568,197.452148 C276.172609,196.792965 276.754472,196.28231 277.503174,195.920166 C278.251875,195.558022 279.086014,195.376953 280.005615,195.376953 C281.616951,195.376953 282.829504,195.76554 283.643311,196.542725 C284.457117,197.319909 284.864014,198.56298 284.864014,200.271973 L284.864014,209 L282.837646,209 Z M304.627197,207.205566 L304.517334,207.205566 C303.581457,208.564623 302.181731,209.244141 300.318115,209.244141 C298.568432,209.244141 297.207362,208.646002 296.234863,207.449707 C295.262365,206.253412 294.776123,204.552583 294.776123,202.347168 C294.776123,200.141753 295.264399,198.428717 296.240967,197.208008 C297.217534,195.987299 298.57657,195.376953 300.318115,195.376953 C302.132903,195.376953 303.524491,196.036126 304.49292,197.354492 L304.651611,197.354492 L304.566162,196.390137 L304.517334,195.450195 L304.517334,190.005859 L306.543701,190.005859 L306.543701,209 L304.895752,209 L304.627197,207.205566 Z M300.574463,207.547363 C301.957933,207.547363 302.960934,207.170984 303.583496,206.418213 C304.206058,205.665442 304.517334,204.450855 304.517334,202.774414 L304.517334,202.347168 C304.517334,200.451 304.201989,199.098067 303.571289,198.28833 C302.940589,197.478593 301.933519,197.07373 300.550049,197.07373 C299.361892,197.07373 298.452477,197.535559 297.821777,198.459229 C297.191078,199.382898 296.875732,200.687003 296.875732,202.371582 C296.875732,204.080575 297.189043,205.370438 297.815674,206.241211 C298.442305,207.111984 299.361892,207.547363 300.574463,207.547363 Z M312.866943,209 L310.840576,209 L310.840576,195.621094 L312.866943,195.621094 L312.866943,209 Z M310.669678,191.995605 C310.669678,191.531736 310.783609,191.191977 311.011475,190.976318 C311.23934,190.76066 311.524168,190.652832 311.865967,190.652832 C312.191489,190.652832 312.472248,190.762694 312.708252,190.982422 C312.944256,191.20215 313.062256,191.539874 313.062256,191.995605 C313.062256,192.451337 312.944256,192.791096 312.708252,193.014893 C312.472248,193.238689 312.191489,193.350586 311.865967,193.350586 C311.524168,193.350586 311.23934,193.238689 311.011475,193.014893 C310.783609,192.791096 310.669678,192.451337 310.669678,191.995605 Z M328.113525,195.621094 L328.113525,196.902832 L325.635498,197.195801 C325.863364,197.480633 326.066812,197.852944 326.24585,198.312744 C326.424887,198.772545 326.514404,199.291338 326.514404,199.869141 C326.514404,201.179369 326.066818,202.225094 325.171631,203.006348 C324.276444,203.787602 323.047615,204.178223 321.485107,204.178223 C321.086342,204.178223 320.711997,204.145671 320.362061,204.080566 C319.499426,204.536298 319.068115,205.110023 319.068115,205.801758 C319.068115,206.167971 319.218667,206.438557 319.519775,206.613525 C319.820884,206.788494 320.337643,206.875977 321.070068,206.875977 L323.438232,206.875977 C324.886807,206.875977 325.999671,207.181149 326.776855,207.791504 C327.55404,208.401859 327.942627,209.288894 327.942627,210.452637 C327.942627,211.933764 327.348557,213.062903 326.1604,213.840088 C324.972243,214.617273 323.238862,215.005859 320.960205,215.005859 C319.210522,215.005859 317.861658,214.680342 316.913574,214.029297 C315.96549,213.378252 315.491455,212.458665 315.491455,211.270508 C315.491455,210.456702 315.751869,209.75277 316.272705,209.158691 C316.793541,208.564613 317.525956,208.161785 318.469971,207.950195 C318.128172,207.795572 317.84131,207.555503 317.609375,207.22998 C317.37744,206.904458 317.261475,206.526044 317.261475,206.094727 C317.261475,205.606443 317.391682,205.179201 317.6521,204.812988 C317.912518,204.446776 318.323484,204.092775 318.88501,203.750977 C318.193275,203.466144 317.629722,202.981937 317.194336,202.29834 C316.75895,201.614743 316.54126,200.8335 316.54126,199.95459 C316.54126,198.489739 316.980708,197.3606 317.859619,196.567139 C318.73853,195.773678 319.983635,195.376953 321.594971,195.376953 C322.294844,195.376953 322.925534,195.458333 323.487061,195.621094 L328.113525,195.621094 Z M317.44458,211.246094 C317.44458,211.970381 317.749753,212.519692 318.360107,212.894043 C318.970462,213.268394 319.845291,213.455566 320.984619,213.455566 C322.685474,213.455566 323.94482,213.201256 324.762695,212.692627 C325.58057,212.183998 325.989502,211.494308 325.989502,210.623535 C325.989502,209.899248 325.765709,209.39673 325.318115,209.115967 C324.870522,208.835204 324.028245,208.694824 322.79126,208.694824 L320.362061,208.694824 C319.44246,208.694824 318.726321,208.914549 318.213623,209.354004 C317.700925,209.793459 317.44458,210.42415 317.44458,211.246094 Z M318.543213,199.905762 C318.543213,200.841639 318.807696,201.54964 319.33667,202.029785 C319.865644,202.509931 320.602127,202.75 321.546143,202.75 C323.523692,202.75 324.512451,201.789723 324.512451,199.869141 C324.512451,197.859039 323.511485,196.854004 321.509521,196.854004 C320.557368,196.854004 319.824954,197.110349 319.312256,197.623047 C318.799558,198.135745 318.543213,198.896642 318.543213,199.905762 Z M332.886475,209 L330.860107,209 L330.860107,195.621094 L332.886475,195.621094 L332.886475,209 Z M330.689209,191.995605 C330.689209,191.531736 330.80314,191.191977 331.031006,190.976318 C331.258872,190.76066 331.543699,190.652832 331.885498,190.652832 C332.211021,190.652832 332.491779,190.762694 332.727783,190.982422 C332.963787,191.20215 333.081787,191.539874 333.081787,191.995605 C333.081787,192.451337 332.963787,192.791096 332.727783,193.014893 C332.491779,193.238689 332.211021,193.350586 331.885498,193.350586 C331.543699,193.350586 331.258872,193.238689 331.031006,193.014893 C330.80314,192.791096 330.689209,192.451337 330.689209,191.995605 Z M341.504639,207.571777 C341.862713,207.571777 342.208576,207.545329 342.542236,207.492432 C342.875897,207.439534 343.14038,207.384603 343.335693,207.327637 L343.335693,208.87793 C343.115966,208.983724 342.792483,209.071207 342.365234,209.140381 C341.937986,209.209554 341.553469,209.244141 341.21167,209.244141 C338.623766,209.244141 337.329834,207.881036 337.329834,205.154785 L337.329834,197.195801 L335.41333,197.195801 L335.41333,196.219238 L337.329834,195.376953 L338.184326,192.520508 L339.356201,192.520508 L339.356201,195.621094 L343.238037,195.621094 L343.238037,197.195801 L339.356201,197.195801 L339.356201,205.069336 C339.356201,205.875004 339.547443,206.493487 339.929932,206.924805 C340.312421,207.356122 340.837318,207.571777 341.504639,207.571777 Z M354.639404,205.350098 C354.639404,206.595221 354.175542,207.555498 353.247803,208.230957 C352.320064,208.906416 351.017993,209.244141 349.341553,209.244141 C347.567455,209.244141 346.184006,208.963382 345.191162,208.401855 L345.191162,206.521973 C345.834069,206.847495 346.523759,207.10384 347.260254,207.291016 C347.996748,207.478191 348.706784,207.571777 349.390381,207.571777 C350.448329,207.571777 351.262123,207.402915 351.831787,207.065186 C352.401451,206.727456 352.686279,206.212731 352.686279,205.520996 C352.686279,205.00016 352.460451,204.554608 352.008789,204.184326 C351.557127,203.814044 350.676195,203.37663 349.365967,202.87207 C348.120843,202.408201 347.235842,202.003338 346.710938,201.657471 C346.186033,201.311603 345.795411,200.918948 345.539062,200.479492 C345.282714,200.040037 345.154541,199.51514 345.154541,198.904785 C345.154541,197.814285 345.598059,196.953698 346.485107,196.322998 C347.372156,195.692298 348.588778,195.376953 350.13501,195.376953 C351.575447,195.376953 352.98331,195.669919 354.358643,196.255859 L353.638428,197.903809 C352.295648,197.35042 351.079026,197.07373 349.988525,197.07373 C349.028234,197.07373 348.303958,197.224282 347.815674,197.525391 C347.32739,197.826499 347.083252,198.241534 347.083252,198.770508 C347.083252,199.128583 347.174804,199.433755 347.35791,199.686035 C347.541017,199.938315 347.836017,200.178384 348.24292,200.40625 C348.649823,200.634116 349.431065,200.963702 350.58667,201.39502 C352.173592,201.972822 353.245765,202.554685 353.803223,203.140625 C354.36068,203.726565 354.639404,204.463049 354.639404,205.350098 Z M375.354736,209 L372.901123,201.150879 C372.7465,200.670733 372.457603,199.580249 372.034424,197.879395 L371.936768,197.879395 C371.611245,199.303555 371.326417,200.402177 371.082275,201.175293 L368.55542,209 L366.21167,209 L362.561768,195.621094 L364.685791,195.621094 C365.548426,198.982113 366.205564,201.541495 366.657227,203.299316 C367.108889,205.057138 367.367269,206.241208 367.432373,206.851562 L367.530029,206.851562 C367.619548,206.387693 367.763996,205.78752 367.963379,205.051025 C368.162761,204.314531 368.335693,203.730634 368.482178,203.299316 L370.935791,195.621094 L373.133057,195.621094 L375.525635,203.299316 C375.981366,204.699063 376.290608,205.874995 376.453369,206.827148 L376.551025,206.827148 C376.583578,206.534178 376.67106,206.082523 376.813477,205.472168 C376.955893,204.861813 377.804273,201.578155 379.358643,195.621094 L381.458252,195.621094 L377.759521,209 L375.354736,209 Z M385.901611,209 L383.875244,209 L383.875244,195.621094 L385.901611,195.621094 L385.901611,209 Z M383.704346,191.995605 C383.704346,191.531736 383.818277,191.191977 384.046143,190.976318 C384.274008,190.76066 384.558836,190.652832 384.900635,190.652832 C385.226157,190.652832 385.506916,190.762694 385.74292,190.982422 C385.978924,191.20215 386.096924,191.539874 386.096924,191.995605 C386.096924,192.451337 385.978924,192.791096 385.74292,193.014893 C385.506916,193.238689 385.226157,193.350586 384.900635,193.350586 C384.558836,193.350586 384.274008,193.238689 384.046143,193.014893 C383.818277,192.791096 383.704346,192.451337 383.704346,191.995605 Z M394.519775,207.571777 C394.87785,207.571777 395.223713,207.545329 395.557373,207.492432 C395.891034,207.439534 396.155517,207.384603 396.35083,207.327637 L396.35083,208.87793 C396.131102,208.983724 395.807619,209.071207 395.380371,209.140381 C394.953123,209.209554 394.568605,209.244141 394.226807,209.244141 C391.638903,209.244141 390.344971,207.881036 390.344971,205.154785 L390.344971,197.195801 L388.428467,197.195801 L388.428467,196.219238 L390.344971,195.376953 L391.199463,192.520508 L392.371338,192.520508 L392.371338,195.621094 L396.253174,195.621094 L396.253174,197.195801 L392.371338,197.195801 L392.371338,205.069336 C392.371338,205.875004 392.562579,206.493487 392.945068,206.924805 C393.327557,207.356122 393.852454,207.571777 394.519775,207.571777 Z M408.179443,209 L408.179443,200.345215 C408.179443,199.254715 407.931236,198.440921 407.434814,197.903809 C406.938393,197.366697 406.161219,197.098145 405.103271,197.098145 C403.695387,197.098145 402.667972,197.480628 402.020996,198.245605 C401.37402,199.010583 401.050537,200.263826 401.050537,202.005371 L401.050537,209 L399.02417,209 L399.02417,190.005859 L401.050537,190.005859 L401.050537,195.755371 C401.050537,196.447106 401.017985,197.020831 400.952881,197.476562 L401.074951,197.476562 C401.473716,196.833656 402.041337,196.327069 402.777832,195.956787 C403.514327,195.586505 404.354569,195.401367 405.298584,195.401367 C406.934334,195.401367 408.161129,195.789954 408.979004,196.567139 C409.796879,197.344324 410.205811,198.579256 410.205811,200.271973 L410.205811,209 L408.179443,209 Z M428.809326,192.752441 C426.848053,192.752441 425.29981,193.405511 424.164551,194.71167 C423.029291,196.017829 422.46167,197.806141 422.46167,200.07666 C422.46167,202.412284 423.008946,204.216872 424.103516,205.490479 C425.198085,206.764085 426.758535,207.400879 428.784912,207.400879 C430.030036,207.400879 431.450106,207.177086 433.045166,206.729492 L433.045166,208.54834 C431.808181,209.012209 430.282317,209.244141 428.467529,209.244141 C425.838935,209.244141 423.810554,208.446623 422.382324,206.851562 C420.954094,205.256502 420.23999,202.990086 420.23999,200.052246 C420.23999,198.213044 420.583818,196.601732 421.271484,195.218262 C421.959151,193.834791 422.951979,192.768721 424.25,192.02002 C425.548021,191.271318 427.075919,190.896973 428.83374,190.896973 C430.705494,190.896973 432.34122,191.238766 433.740967,191.922363 L432.862061,193.70459 C431.511142,193.069821 430.160244,192.752441 428.809326,192.752441 Z M451.929443,200.052246 C451.929443,202.908706 451.207201,205.154777 449.762695,206.790527 C448.318189,208.426278 446.310153,209.244141 443.738525,209.244141 C441.109932,209.244141 439.08155,208.440519 437.65332,206.833252 C436.225091,205.225985 435.510986,202.957534 435.510986,200.027832 C435.510986,197.122544 436.227125,194.870369 437.659424,193.27124 C439.091723,191.672111 441.126208,190.872559 443.762939,190.872559 C446.326429,190.872559 448.328362,191.686353 449.768799,193.313965 C451.209236,194.941577 451.929443,197.187648 451.929443,200.052246 Z M437.708252,200.052246 C437.708252,202.46925 438.222977,204.302321 439.252441,205.551514 C440.281906,206.800706 441.777253,207.425293 443.738525,207.425293 C445.716074,207.425293 447.209386,206.802741 448.218506,205.557617 C449.227625,204.312494 449.732178,202.477388 449.732178,200.052246 C449.732178,197.651518 449.22966,195.830654 448.224609,194.5896 C447.219559,193.348545 445.73235,192.728027 443.762939,192.728027 C441.785391,192.728027 440.281906,193.352614 439.252441,194.601807 C438.222977,195.850999 437.708252,197.667794 437.708252,200.052246 Z M465.857666,191.15332 L468.091553,191.15332 L461.658447,209 L459.607666,209 L453.211182,191.15332 L455.408447,191.15332 L459.51001,202.701172 C459.982017,204.027676 460.356363,205.317539 460.633057,206.570801 C460.926027,205.252435 461.30851,203.938158 461.780518,202.62793 L465.857666,191.15332 Z M484.485596,209 L482.117432,209 L472.364014,194.021973 L472.266357,194.021973 C472.396566,195.779794 472.46167,197.391106 472.46167,198.855957 L472.46167,209 L470.545166,209 L470.545166,191.15332 L472.888916,191.15332 L482.61792,206.070312 L482.715576,206.070312 C482.6993,205.850585 482.662679,205.144619 482.605713,203.952393 C482.548746,202.760167 482.528402,201.907717 482.544678,201.39502 L482.544678,191.15332 L484.485596,191.15332 L484.485596,209 Z M494.739502,209.244141 C492.761953,209.244141 491.201503,208.641933 490.058105,207.4375 C488.914708,206.233067 488.343018,204.56072 488.343018,202.42041 C488.343018,200.263824 488.874018,198.550788 489.936035,197.28125 C490.998052,196.011712 492.424226,195.376953 494.2146,195.376953 C495.89104,195.376953 497.217524,195.928299 498.194092,197.031006 C499.170659,198.133713 499.658936,199.58837 499.658936,201.39502 L499.658936,202.676758 L490.442627,202.676758 C490.483317,204.247404 490.880042,205.439612 491.632813,206.253418 C492.385583,207.067224 493.44555,207.474121 494.812744,207.474121 C496.253181,207.474121 497.67732,207.173017 499.085205,206.570801 L499.085205,208.377441 C498.369056,208.686688 497.691572,208.908447 497.052734,209.042725 C496.413897,209.177003 495.642827,209.244141 494.739502,209.244141 Z M494.190186,197.07373 C493.115961,197.07373 492.259443,197.423662 491.620605,198.123535 C490.981768,198.823408 490.605388,199.791823 490.491455,201.028809 L497.486084,201.028809 C497.486084,199.751133 497.201256,198.772546 496.631592,198.093018 C496.061927,197.413489 495.248134,197.07373 494.190186,197.07373 Z M507.434814,207.571777 C507.792889,207.571777 508.138752,207.545329 508.472412,207.492432 C508.806073,207.439534 509.070556,207.384603 509.265869,207.327637 L509.265869,208.87793 C509.046141,208.983724 508.722658,209.071207 508.29541,209.140381 C507.868162,209.209554 507.483644,209.244141 507.141846,209.244141 C504.553942,209.244141 503.26001,207.881036 503.26001,205.154785 L503.26001,197.195801 L501.343506,197.195801 L501.343506,196.219238 L503.26001,195.376953 L504.114502,192.520508 L505.286377,192.520508 L505.286377,195.621094 L509.168213,195.621094 L509.168213,197.195801 L505.286377,197.195801 L505.286377,205.069336 C505.286377,205.875004 505.477619,206.493487 505.860107,206.924805 C506.242596,207.356122 506.767493,207.571777 507.434814,207.571777 Z M520.56958,205.350098 C520.56958,206.595221 520.105718,207.555498 519.177979,208.230957 C518.25024,208.906416 516.948169,209.244141 515.271729,209.244141 C513.497631,209.244141 512.114181,208.963382 511.121338,208.401855 L511.121338,206.521973 C511.764245,206.847495 512.453935,207.10384 513.19043,207.291016 C513.926924,207.478191 514.636959,207.571777 515.320557,207.571777 C516.378505,207.571777 517.192299,207.402915 517.761963,207.065186 C518.331627,206.727456 518.616455,206.212731 518.616455,205.520996 C518.616455,205.00016 518.390627,204.554608 517.938965,204.184326 C517.487302,203.814044 516.60637,203.37663 515.296143,202.87207 C514.051019,202.408201 513.166018,202.003338 512.641113,201.657471 C512.116208,201.311603 511.725587,200.918948 511.469238,200.479492 C511.212889,200.040037 511.084717,199.51514 511.084717,198.904785 C511.084717,197.814285 511.528234,196.953698 512.415283,196.322998 C513.302332,195.692298 514.518954,195.376953 516.065186,195.376953 C517.505622,195.376953 518.913486,195.669919 520.288818,196.255859 L519.568604,197.903809 C518.225823,197.35042 517.009201,197.07373 515.918701,197.07373 C514.95841,197.07373 514.234133,197.224282 513.74585,197.525391 C513.257566,197.826499 513.013428,198.241534 513.013428,198.770508 C513.013428,199.128583 513.10498,199.433755 513.288086,199.686035 C513.471192,199.938315 513.766193,200.178384 514.173096,200.40625 C514.579999,200.634116 515.361241,200.963702 516.516846,201.39502 C518.103768,201.972822 519.175941,202.554685 519.733398,203.140625 C520.290856,203.726565 520.56958,204.463049 520.56958,205.350098 Z M532.263916,195.621094 L532.263916,204.300293 C532.263916,205.390793 532.512123,206.204587 533.008545,206.741699 C533.504967,207.278811 534.28214,207.547363 535.340088,207.547363 C536.739834,207.547363 537.76318,207.16488 538.410156,206.399902 C539.057132,205.634925 539.380615,204.385751 539.380615,202.652344 L539.380615,195.621094 L541.406982,195.621094 L541.406982,209 L539.734619,209 L539.44165,207.205566 L539.331787,207.205566 C538.916746,207.864749 538.340987,208.369302 537.604492,208.719238 C536.867998,209.069175 536.027755,209.244141 535.08374,209.244141 C533.456128,209.244141 532.237471,208.857589 531.427734,208.084473 C530.617997,207.311357 530.213135,206.07439 530.213135,204.373535 L530.213135,195.621094 L532.263916,195.621094 Z M554.334229,205.350098 C554.334229,206.595221 553.870366,207.555498 552.942627,208.230957 C552.014888,208.906416 550.712818,209.244141 549.036377,209.244141 C547.26228,209.244141 545.87883,208.963382 544.885986,208.401855 L544.885986,206.521973 C545.528893,206.847495 546.218584,207.10384 546.955078,207.291016 C547.691573,207.478191 548.401608,207.571777 549.085205,207.571777 C550.143153,207.571777 550.956947,207.402915 551.526611,207.065186 C552.096276,206.727456 552.381104,206.212731 552.381104,205.520996 C552.381104,205.00016 552.155276,204.554608 551.703613,204.184326 C551.251951,203.814044 550.371019,203.37663 549.060791,202.87207 C547.815668,202.408201 546.930667,202.003338 546.405762,201.657471 C545.880857,201.311603 545.490236,200.918948 545.233887,200.479492 C544.977538,200.040037 544.849365,199.51514 544.849365,198.904785 C544.849365,197.814285 545.292883,196.953698 546.179932,196.322998 C547.06698,195.692298 548.283602,195.376953 549.829834,195.376953 C551.270271,195.376953 552.678134,195.669919 554.053467,196.255859 L553.333252,197.903809 C551.990472,197.35042 550.77385,197.07373 549.68335,197.07373 C548.723058,197.07373 547.998782,197.224282 547.510498,197.525391 C547.022214,197.826499 546.778076,198.241534 546.778076,198.770508 C546.778076,199.128583 546.869628,199.433755 547.052734,199.686035 C547.235841,199.938315 547.530841,200.178384 547.937744,200.40625 C548.344647,200.634116 549.125889,200.963702 550.281494,201.39502 C551.868416,201.972822 552.94059,202.554685 553.498047,203.140625 C554.055504,203.726565 554.334229,204.463049 554.334229,205.350098 Z M559.656494,209 L557.630127,209 L557.630127,195.621094 L559.656494,195.621094 L559.656494,209 Z M557.459229,191.995605 C557.459229,191.531736 557.57316,191.191977 557.801025,190.976318 C558.028891,190.76066 558.313719,190.652832 558.655518,190.652832 C558.98104,190.652832 559.261799,190.762694 559.497803,190.982422 C559.733807,191.20215 559.851807,191.539874 559.851807,191.995605 C559.851807,192.451337 559.733807,192.791096 559.497803,193.014893 C559.261799,193.238689 558.98104,193.350586 558.655518,193.350586 C558.313719,193.350586 558.028891,193.238689 557.801025,193.014893 C557.57316,192.791096 557.459229,192.451337 557.459229,191.995605 Z M573.108643,209 L573.108643,200.345215 C573.108643,199.254715 572.860435,198.440921 572.364014,197.903809 C571.867592,197.366697 571.090419,197.098145 570.032471,197.098145 C568.632724,197.098145 567.607344,197.476559 566.956299,198.233398 C566.305254,198.990238 565.979736,200.239412 565.979736,201.980957 L565.979736,209 L563.953369,209 L563.953369,195.621094 L565.601318,195.621094 L565.930908,197.452148 L566.028564,197.452148 C566.443606,196.792965 567.025468,196.28231 567.77417,195.920166 C568.522872,195.558022 569.35701,195.376953 570.276611,195.376953 C571.887948,195.376953 573.1005,195.76554 573.914307,196.542725 C574.728113,197.319909 575.13501,198.56298 575.13501,200.271973 L575.13501,209 L573.108643,209 Z M590.247314,195.621094 L590.247314,196.902832 L587.769287,197.195801 C587.997153,197.480633 588.200601,197.852944 588.379639,198.312744 C588.558676,198.772545 588.648193,199.291338 588.648193,199.869141 C588.648193,201.179369 588.200607,202.225094 587.30542,203.006348 C586.410233,203.787602 585.181404,204.178223 583.618896,204.178223 C583.220131,204.178223 582.845786,204.145671 582.49585,204.080566 C581.633215,204.536298 581.201904,205.110023 581.201904,205.801758 C581.201904,206.167971 581.352456,206.438557 581.653564,206.613525 C581.954673,206.788494 582.471432,206.875977 583.203857,206.875977 L585.572021,206.875977 C587.020596,206.875977 588.13346,207.181149 588.910645,207.791504 C589.687829,208.401859 590.076416,209.288894 590.076416,210.452637 C590.076416,211.933764 589.482346,213.062903 588.294189,213.840088 C587.106032,214.617273 585.372651,215.005859 583.093994,215.005859 C581.344311,215.005859 579.995447,214.680342 579.047363,214.029297 C578.099279,213.378252 577.625244,212.458665 577.625244,211.270508 C577.625244,210.456702 577.885658,209.75277 578.406494,209.158691 C578.92733,208.564613 579.659745,208.161785 580.60376,207.950195 C580.261961,207.795572 579.975099,207.555503 579.743164,207.22998 C579.511229,206.904458 579.395264,206.526044 579.395264,206.094727 C579.395264,205.606443 579.525471,205.179201 579.785889,204.812988 C580.046307,204.446776 580.457273,204.092775 581.018799,203.750977 C580.327064,203.466144 579.763511,202.981937 579.328125,202.29834 C578.892739,201.614743 578.675049,200.8335 578.675049,199.95459 C578.675049,198.489739 579.114498,197.3606 579.993408,196.567139 C580.872319,195.773678 582.117424,195.376953 583.72876,195.376953 C584.428633,195.376953 585.059323,195.458333 585.62085,195.621094 L590.247314,195.621094 Z M579.578369,211.246094 C579.578369,211.970381 579.883542,212.519692 580.493896,212.894043 C581.104251,213.268394 581.97908,213.455566 583.118408,213.455566 C584.819263,213.455566 586.078609,213.201256 586.896484,212.692627 C587.71436,212.183998 588.123291,211.494308 588.123291,210.623535 C588.123291,209.899248 587.899498,209.39673 587.451904,209.115967 C587.004311,208.835204 586.162034,208.694824 584.925049,208.694824 L582.49585,208.694824 C581.576249,208.694824 580.86011,208.914549 580.347412,209.354004 C579.834714,209.793459 579.578369,210.42415 579.578369,211.246094 Z M580.677002,199.905762 C580.677002,200.841639 580.941485,201.54964 581.470459,202.029785 C581.999433,202.509931 582.735917,202.75 583.679932,202.75 C585.657481,202.75 586.64624,201.789723 586.64624,199.869141 C586.64624,197.859039 585.645274,196.854004 583.643311,196.854004 C582.691157,196.854004 581.958743,197.110349 581.446045,197.623047 C580.933347,198.135745 580.677002,198.896642 580.677002,199.905762 Z M612.683838,209 L610.242432,209 L603.736084,200.345215 L601.868408,202.005371 L601.868408,209 L599.793213,209 L599.793213,191.15332 L601.868408,191.15332 L601.868408,200.003418 L609.96167,191.15332 L612.415283,191.15332 L605.237549,198.904785 L612.683838,209 Z M620.484131,209.244141 C618.506582,209.244141 616.946132,208.641933 615.802734,207.4375 C614.659337,206.233067 614.087646,204.56072 614.087646,202.42041 C614.087646,200.263824 614.618647,198.550788 615.680664,197.28125 C616.742681,196.011712 618.168855,195.376953 619.959229,195.376953 C621.635669,195.376953 622.962153,195.928299 623.938721,197.031006 C624.915288,198.133713 625.403564,199.58837 625.403564,201.39502 L625.403564,202.676758 L616.187256,202.676758 C616.227946,204.247404 616.624671,205.439612 617.377441,206.253418 C618.130212,207.067224 619.190179,207.474121 620.557373,207.474121 C621.99781,207.474121 623.421949,207.173017 624.829834,206.570801 L624.829834,208.377441 C624.113685,208.686688 623.436201,208.908447 622.797363,209.042725 C622.158525,209.177003 621.387456,209.244141 620.484131,209.244141 Z M619.934814,197.07373 C618.86059,197.07373 618.004072,197.423662 617.365234,198.123535 C616.726397,198.823408 616.350017,199.791823 616.236084,201.028809 L623.230713,201.028809 C623.230713,199.751133 622.945885,198.772546 622.376221,198.093018 C621.806556,197.413489 620.992762,197.07373 619.934814,197.07373 Z M634.96167,195.376953 C635.555748,195.376953 636.088783,195.425781 636.560791,195.523438 L636.280029,197.40332 C635.726641,197.281249 635.238365,197.220215 634.815186,197.220215 C633.732823,197.220215 632.807133,197.659664 632.038086,198.538574 C631.269039,199.417485 630.884521,200.512038 630.884521,201.822266 L630.884521,209 L628.858154,209 L628.858154,195.621094 L630.530518,195.621094 L630.762451,198.099121 L630.860107,198.099121 C631.356529,197.228349 631.954668,196.556969 632.654541,196.084961 C633.354414,195.612953 634.12345,195.376953 634.96167,195.376953 Z M646.790283,209 L646.387451,207.095703 L646.289795,207.095703 C645.622474,207.933923 644.957197,208.501545 644.293945,208.798584 C643.630693,209.095623 642.802658,209.244141 641.809814,209.244141 C640.48331,209.244141 639.443689,208.902347 638.690918,208.21875 C637.938147,207.535153 637.561768,206.562669 637.561768,205.30127 C637.561768,202.599433 639.722391,201.183432 644.043701,201.053223 L646.314209,200.97998 L646.314209,200.149902 C646.314209,199.100092 646.088381,198.324954 645.636719,197.824463 C645.185056,197.323972 644.462814,197.07373 643.469971,197.07373 C642.355056,197.07373 641.093676,197.415524 639.685791,198.099121 L639.063232,196.548828 C639.722415,196.190753 640.444658,195.909995 641.22998,195.706543 C642.015303,195.503091 642.802649,195.401367 643.592041,195.401367 C645.187101,195.401367 646.369137,195.755368 647.138184,196.463379 C647.90723,197.17139 648.291748,198.306633 648.291748,199.869141 L648.291748,209 L646.790283,209 Z M642.212646,207.571777 C643.474046,207.571777 644.46484,207.225915 645.185059,206.53418 C645.905277,205.842444 646.265381,204.87403 646.265381,203.628906 L646.265381,202.42041 L644.239014,202.505859 C642.627677,202.562826 641.465987,202.813067 640.753906,203.256592 C640.041826,203.700116 639.685791,204.389807 639.685791,205.325684 C639.685791,206.058109 639.90755,206.615558 640.351074,206.998047 C640.794599,207.380536 641.415116,207.571777 642.212646,207.571777 Z M661.096924,205.350098 C661.096924,206.595221 660.633061,207.555498 659.705322,208.230957 C658.777583,208.906416 657.475513,209.244141 655.799072,209.244141 C654.024975,209.244141 652.641525,208.963382 651.648682,208.401855 L651.648682,206.521973 C652.291589,206.847495 652.981279,207.10384 653.717773,207.291016 C654.454268,207.478191 655.164303,207.571777 655.8479,207.571777 C656.905848,207.571777 657.719642,207.402915 658.289307,207.065186 C658.858971,206.727456 659.143799,206.212731 659.143799,205.520996 C659.143799,205.00016 658.917971,204.554608 658.466309,204.184326 C658.014646,203.814044 657.133714,203.37663 655.823486,202.87207 C654.578363,202.408201 653.693362,202.003338 653.168457,201.657471 C652.643552,201.311603 652.252931,200.918948 651.996582,200.479492 C651.740233,200.040037 651.612061,199.51514 651.612061,198.904785 C651.612061,197.814285 652.055578,196.953698 652.942627,196.322998 C653.829676,195.692298 655.046298,195.376953 656.592529,195.376953 C658.032966,195.376953 659.44083,195.669919 660.816162,196.255859 L660.095947,197.903809 C658.753167,197.35042 657.536545,197.07373 656.446045,197.07373 C655.485754,197.07373 654.761477,197.224282 654.273193,197.525391 C653.78491,197.826499 653.540771,198.241534 653.540771,198.770508 C653.540771,199.128583 653.632323,199.433755 653.81543,199.686035 C653.998536,199.938315 654.293536,200.178384 654.700439,200.40625 C655.107343,200.634116 655.888585,200.963702 657.044189,201.39502 C658.631111,201.972822 659.703285,202.554685 660.260742,203.140625 C660.818199,203.726565 661.096924,204.463049 661.096924,205.350098 Z M676.709717,199.344238 L681.739014,199.344238 L681.739014,201.028809 L676.709717,201.028809 L676.709717,206.229004 L675.012939,206.229004 L675.012939,201.028809 L670.008057,201.028809 L670.008057,199.344238 L675.012939,199.344238 L675.012939,194.119629 L676.709717,194.119629 L676.709717,199.344238 Z M699.622314,192.752441 C697.661042,192.752441 696.112799,193.405511 694.977539,194.71167 C693.842279,196.017829 693.274658,197.806141 693.274658,200.07666 C693.274658,202.412284 693.821935,204.216872 694.916504,205.490479 C696.011073,206.764085 697.571523,207.400879 699.5979,207.400879 C700.843024,207.400879 702.263094,207.177086 703.858154,206.729492 L703.858154,208.54834 C702.621169,209.012209 701.095305,209.244141 699.280518,209.244141 C696.651924,209.244141 694.623542,208.446623 693.195312,206.851562 C691.767083,205.256502 691.052979,202.990086 691.052979,200.052246 C691.052979,198.213044 691.396806,196.601732 692.084473,195.218262 C692.772139,193.834791 693.764967,192.768721 695.062988,192.02002 C696.361009,191.271318 697.888907,190.896973 699.646729,190.896973 C701.518483,190.896973 703.154208,191.238766 704.553955,191.922363 L703.675049,193.70459 C702.324131,193.069821 700.973233,192.752441 699.622314,192.752441 Z M718.994873,202.29834 C718.994873,204.47934 718.445562,206.182204 717.346924,207.406982 C716.248286,208.631761 714.73056,209.244141 712.793701,209.244141 C711.597406,209.244141 710.535405,208.963382 709.607666,208.401855 C708.679927,207.840329 707.963788,207.034673 707.459229,205.984863 C706.954669,204.935053 706.702393,203.706224 706.702393,202.29834 C706.702393,200.117339 707.247635,198.418544 708.338135,197.201904 C709.428635,195.985264 710.942292,195.376953 712.87915,195.376953 C714.750905,195.376953 716.238113,195.999505 717.34082,197.244629 C718.443528,198.489752 718.994873,200.174306 718.994873,202.29834 Z M708.802002,202.29834 C708.802002,204.007333 709.143795,205.309403 709.827393,206.20459 C710.51099,207.099777 711.516025,207.547363 712.842529,207.547363 C714.169033,207.547363 715.176103,207.101811 715.86377,206.210693 C716.551436,205.319576 716.895264,204.015471 716.895264,202.29834 C716.895264,200.597485 716.551436,199.305587 715.86377,198.422607 C715.176103,197.539628 714.160895,197.098145 712.818115,197.098145 C711.491611,197.098145 710.490645,197.533524 709.815186,198.404297 C709.139726,199.275069 708.802002,200.573071 708.802002,202.29834 Z M728.650635,195.376953 C729.244713,195.376953 729.777748,195.425781 730.249756,195.523438 L729.968994,197.40332 C729.415606,197.281249 728.92733,197.220215 728.50415,197.220215 C727.421788,197.220215 726.496098,197.659664 725.727051,198.538574 C724.958004,199.417485 724.573486,200.512038 724.573486,201.822266 L724.573486,209 L722.547119,209 L722.547119,195.621094 L724.219482,195.621094 L724.451416,198.099121 L724.549072,198.099121 C725.045494,197.228349 725.643633,196.556969 726.343506,196.084961 C727.043379,195.612953 727.812414,195.376953 728.650635,195.376953 Z M737.903564,209.244141 C735.926016,209.244141 734.365566,208.641933 733.222168,207.4375 C732.07877,206.233067 731.50708,204.56072 731.50708,202.42041 C731.50708,200.263824 732.038081,198.550788 733.100098,197.28125 C734.162115,196.011712 735.588289,195.376953 737.378662,195.376953 C739.055103,195.376953 740.381587,195.928299 741.358154,197.031006 C742.334722,198.133713 742.822998,199.58837 742.822998,201.39502 L742.822998,202.676758 L733.606689,202.676758 C733.64738,204.247404 734.044104,205.439612 734.796875,206.253418 C735.549646,207.067224 736.609612,207.474121 737.976807,207.474121 C739.417244,207.474121 740.841383,207.173017 742.249268,206.570801 L742.249268,208.377441 C741.533118,208.686688 740.855635,208.908447 740.216797,209.042725 C739.577959,209.177003 738.806889,209.244141 737.903564,209.244141 Z M737.354248,197.07373 C736.280024,197.07373 735.423506,197.423662 734.784668,198.123535 C734.14583,198.823408 733.76945,199.791823 733.655518,201.028809 L740.650146,201.028809 C740.650146,199.751133 740.365319,198.772546 739.795654,198.093018 C739.22599,197.413489 738.412196,197.07373 737.354248,197.07373 Z M754.480713,209 L748.426025,193.179688 L748.328369,193.179688 C748.442302,194.432949 748.499268,195.922192 748.499268,197.647461 L748.499268,209 L746.582764,209 L746.582764,191.15332 L749.707764,191.15332 L755.359619,205.875 L755.457275,205.875 L761.157959,191.15332 L764.258545,191.15332 L764.258545,209 L762.18335,209 L762.18335,197.500977 C762.18335,196.182611 762.240315,194.750333 762.354248,193.204102 L762.256592,193.204102 L756.153076,209 L754.480713,209 Z M769.153564,209 L769.153564,191.15332 L771.22876,191.15332 L771.22876,207.120117 L779.102295,207.120117 L779.102295,209 L769.153564,209 Z" id="Predict-handwritten" fill="#FEEA0C"></path>
    </g>
</svg>